<?xml version="1.0" standalone="no"?><!DOCTYPE svg PUBLIC "-//W3C//DTD SVG 1.1//EN" "http://www.w3.org/Graphics/SVG/1.1/DTD/svg11.dtd"><svg t="1774767351087" class="icon" viewBox="0 0 1024 1024" version="1.1" xmlns="http://www.w3.org/2000/svg" p-id="8128" xmlns:xlink="http://www.w3.org/1999/xlink" width="200" height="200"><path d="M693.261619 500.224c-20.992 0-38.4-15.872-40.448-36.864-5.12-56.32-45.568-104.448-99.84-119.808-10.24-3.072-18.944-9.728-24.576-19.456-5.12-9.216-6.656-20.48-3.584-30.72 5.12-17.408 20.992-29.696 38.912-29.696 3.584 0 7.68 0.512 11.264 1.536 86.016 24.576 150.016 100.864 158.72 189.952 1.024 10.752-2.048 21.504-9.216 29.696-6.656 8.192-16.896 13.312-27.648 14.848-1.536 0.512-2.56 0.512-3.584 0.512z" fill="#13227a" p-id="8129"></path><path d="M517.133619 943.616zM912.397619 484.864c0.512-5.632 1.024-11.776 1.024-24.064 0-209.92-171.008-380.928-380.928-380.928-155.648 0-275.456 70.656-333.824 194.56-2.56 0-5.12 0.512-8.704 1.024C57.869619 287.744 15.885619 338.432 4.109619 378.88c-22.016 75.776 48.64 147.456 111.616 194.56l21.504 15.36c0 2.56 0 4.608 0.512 7.168 23.552 164.352 135.168 342.016 378.88 348.16 141.824 0 226.304-63.488 308.736-158.72l4.608-6.144c105.472-9.216 171.52-45.056 188.416-102.912 12.288-41.472 13.312-104.448-105.984-191.488zM517.133619 862.72h-12.288c-144.896 0-237.568-104.96-273.408-219.136 65.536 33.28 141.312 62.976 220.16 86.528 92.672 27.136 186.368 44.032 269.824 49.152-41.472 43.008-92.672 76.288-204.288 83.456z m423.936-209.92c-8.192 28.672-74.24 47.104-167.936 47.104-61.44 0-162.816-8.192-297.472-47.616-117.248-34.304-223.744-82.944-300.032-136.704C111.629619 471.04 74.765619 425.984 81.933619 401.408c5.12-16.384 37.888-37.888 115.2-45.056 3.072-0.512 5.632-0.512 7.68-1.024h0.512c5.632-0.512 9.216-1.024 19.968-1.024 6.144 0 11.776-1.536 16.896-4.096 9.728-4.096 17.408-12.288 21.504-22.528 41.472-109.056 134.144-166.4 267.776-166.4 165.376 0 299.52 134.144 299.52 299.52 0 14.336 0 15.36-2.048 23.552-0.512 2.048-1.536 5.12-2.048 10.24-2.048 10.752 0 21.504 5.632 30.72 1.536 2.56 3.584 4.608 5.632 6.656 2.048 2.048 4.096 4.096 6.656 5.632 100.864 66.56 98.816 104.96 96.256 115.2z" fill="#13227a" p-id="8130"></path></svg>